<svg width="156" height="36" viewBox="0 0 156 36" fill="none" xmlns="http://www.w3.org/2000/svg">
<mask id="mask0_0_2935" style="mask-type:alpha" maskUnits="userSpaceOnUse" x="0" y="1" width="30" height="34">
<path d="M12.1778 2.44615C13.9242 1.43787 16.0758 1.43787 17.8222 2.44615L27.0589 7.77895C28.8053 8.78722 29.8811 10.6506 29.8811 12.6671V23.3327C29.8811 25.3493 28.8053 27.2127 27.0589 28.2209L17.8222 33.5537C16.0758 34.562 13.9242 34.562 12.1778 33.5537L2.94111 28.2209C1.19473 27.2127 0.118912 25.3493 0.118912 23.3327V12.6671C0.118912 10.6506 1.19473 8.78722 2.94111 7.77895L12.1778 2.44615Z" fill="#C4C4C4"/>
</mask>
<g mask="url(#mask0_0_2935)">
<path d="M14.9958 0.535889L31.3076 9.95352L23.0527 14.3983L19.643 12.5384L16.5432 12.8484L8.79379 10.0586L6.93393 12.5384L6.004 13.7783L4.14413 12.5384L-1.31607 9.95353L14.9958 0.535889Z" fill="url(#paint0_linear_0_2935)"/>
<path d="M-0.00964357 10.0869L6.31825 13.1555L10.038 22.1448L10.038 22.4548L11.2779 24.0047L16.8575 28.3444L14.9995 36.0835L-0.00964395 27.4179L-0.00964357 10.0869Z" fill="url(#paint1_linear_0_2935)"/>
<path d="M19.9529 22.4544L23.9827 13.775L30.0049 10.0888L30.0049 27.4198L14.9957 36.0854L14.6833 28.3439L19.9529 22.4544Z" fill="url(#paint2_linear_0_2935)"/>
<path d="M14.9951 7.58264C12.4303 7.58264 10.0929 8.55612 8.33207 10.1537L9.76163 22.4614C10.1525 22.6419 12.3947 23.3915 12.8253 23.3915H15.9251C16.4729 23.3915 20.2648 22.2237 20.2648 22.7715L19.9548 21.4695C19.9548 22.0174 19.5107 22.4614 18.9628 22.4614H11.0274C10.4796 22.4614 10.0355 22.0174 10.0355 21.4695V16.6675C10.0355 16.2369 9.94206 15.8115 9.76163 15.4205L8.33207 10.1537C6.73447 11.9145 5.07587 14.9371 5.07587 17.5019C5.07587 22.9802 9.51682 27.4212 14.9951 27.4212C20.4735 27.4212 24.9144 22.9802 24.9144 17.5019C24.9144 12.0236 20.4735 7.58264 14.9951 7.58264Z" fill="url(#paint3_linear_0_2935)"/>
<path d="M13.1582 11.7228C13.3772 11.6383 13.6115 11.6051 13.8434 11.6258C14.0754 11.6465 14.2989 11.7205 14.4969 11.8422C14.695 11.9638 14.8625 12.13 14.9867 12.3282C15.1109 12.5263 15.1886 12.7511 15.2139 12.9857C15.394 14.6756 15.0144 16.3866 14.1349 17.8503C13.2553 19.3139 11.9254 20.4473 10.354 21.0726L9.24197 18.1972C10.1806 17.8233 10.9757 17.1473 11.5035 16.2743C12.0313 15.4014 12.2622 14.3803 12.1603 13.37C12.1232 13.0251 12.201 12.6757 12.3813 12.3773C12.5615 12.0789 12.834 11.8485 13.1556 11.7227L13.1582 11.7228Z" fill="#9C5AFF"/>
<path d="M13.1455 11.7275C12.7656 11.8788 12.4583 12.176 12.2912 12.5537C12.1241 12.9313 12.1108 13.3586 12.2543 13.7415L15.5043 22.4083C15.648 22.7912 15.9367 23.0982 16.3068 23.262C16.677 23.4258 17.0983 23.4329 17.4783 23.2817C17.6664 23.2069 17.8388 23.0954 17.9854 22.9537C18.132 22.812 18.2501 22.6427 18.3329 22.4557C18.4156 22.2687 18.4614 22.0675 18.4677 21.8636C18.474 21.6598 18.4406 21.4573 18.3694 21.2677L15.1194 12.6009C15.0483 12.4112 14.9409 12.2382 14.8033 12.0916C14.6656 11.9451 14.5004 11.8279 14.3171 11.7468C14.1338 11.6657 13.9359 11.6222 13.7349 11.6189C13.5339 11.6156 13.3336 11.6525 13.1455 11.7275Z" fill="#9C5AFF"/>
<path d="M17.4639 23.2841C17.245 23.3687 17.0107 23.4019 16.7788 23.3813C16.5469 23.3607 16.3235 23.2867 16.1254 23.1651C15.9273 23.0435 15.7598 22.8774 15.6356 22.6793C15.5114 22.4812 15.4337 22.2564 15.4085 22.0219C15.2285 20.332 15.6081 18.621 16.4876 17.1573C17.3671 15.6935 18.6968 14.56 20.268 13.9344L21.3802 16.8109C20.4415 17.1847 19.6464 17.8607 19.1187 18.7337C18.5909 19.6067 18.3599 20.6277 18.4618 21.638C18.4984 21.9831 18.4201 22.3324 18.2393 22.6306C18.0585 22.9288 17.7857 23.1588 17.4639 23.2841Z" fill="#9C5AFF"/>
</g>
<path d="M43.6027 27V9.54545H46.7646V24.3494H54.4521V27H43.6027ZM60.8271 27.2642C59.9976 27.2642 59.2504 27.1165 58.5856 26.821C57.9265 26.5199 57.4038 26.0767 57.0175 25.4915C56.6368 24.9062 56.4464 24.1847 56.4464 23.3267C56.4464 22.5881 56.5828 21.9773 56.8555 21.4943C57.1282 21.0114 57.5004 20.625 57.972 20.3352C58.4436 20.0455 58.9748 19.8267 59.5657 19.679C60.1623 19.5256 60.7788 19.4148 61.4152 19.3466C62.1822 19.267 62.8044 19.196 63.2817 19.1335C63.7589 19.0653 64.1055 18.9631 64.3214 18.8267C64.543 18.6847 64.6538 18.4659 64.6538 18.1705V18.1193C64.6538 17.4773 64.4635 16.9801 64.0828 16.6278C63.7021 16.2756 63.1538 16.0994 62.4379 16.0994C61.6822 16.0994 61.0828 16.2642 60.6396 16.5938C60.2021 16.9233 59.9067 17.3125 59.7532 17.7614L56.8726 17.3523C57.0998 16.5568 57.4748 15.892 57.9976 15.358C58.5203 14.8182 59.1595 14.4148 59.9152 14.1477C60.6709 13.875 61.5061 13.7386 62.4209 13.7386C63.0515 13.7386 63.6794 13.8125 64.3044 13.9602C64.9294 14.108 65.5004 14.3523 66.0175 14.6932C66.5345 15.0284 66.9493 15.4858 67.2618 16.0653C67.58 16.6449 67.739 17.3693 67.739 18.2386V27H64.7731V25.2017H64.6709C64.4834 25.5653 64.2192 25.9062 63.8782 26.2244C63.543 26.5369 63.1197 26.7898 62.6084 26.983C62.1027 27.1705 61.5089 27.2642 60.8271 27.2642ZM61.6282 24.9972C62.2476 24.9972 62.7845 24.875 63.239 24.6307C63.6936 24.3807 64.043 24.0511 64.2873 23.642C64.5373 23.233 64.6623 22.7869 64.6623 22.304V20.7614C64.5657 20.8409 64.401 20.9148 64.168 20.983C63.9407 21.0511 63.6851 21.1108 63.401 21.1619C63.1169 21.2131 62.8356 21.2585 62.5572 21.2983C62.2788 21.3381 62.0373 21.3722 61.8328 21.4006C61.3726 21.4631 60.9606 21.5653 60.597 21.7074C60.2334 21.8494 59.9464 22.0483 59.7362 22.304C59.526 22.554 59.4209 22.8778 59.4209 23.2756C59.4209 23.8438 59.6282 24.2727 60.043 24.5625C60.4578 24.8523 60.9862 24.9972 61.6282 24.9972ZM73.9265 19.3295V27H70.8413V13.9091H73.7902V16.1335H73.9436C74.2447 15.4006 74.7248 14.8182 75.3839 14.3864C76.0487 13.9545 76.8697 13.7386 77.847 13.7386C78.7504 13.7386 79.5373 13.9318 80.2078 14.3182C80.8839 14.7045 81.4067 15.2642 81.776 15.9972C82.151 16.7301 82.3356 17.6193 82.33 18.6648V27H79.2447V19.142C79.2447 18.267 79.0175 17.5824 78.5629 17.0881C78.114 16.5937 77.4919 16.3466 76.6964 16.3466C76.1567 16.3466 75.6765 16.4659 75.2561 16.7045C74.8413 16.9375 74.5146 17.2756 74.276 17.7188C74.043 18.1619 73.9265 18.6989 73.9265 19.3295ZM90.3243 27.2301C89.2959 27.2301 88.3754 26.9659 87.5629 26.4375C86.7504 25.9091 86.1084 25.142 85.6368 24.1364C85.1652 23.1307 84.9294 21.9091 84.9294 20.4716C84.9294 19.017 85.168 17.7898 85.6453 16.7898C86.1282 15.7841 86.7788 15.0256 87.597 14.5142C88.4152 13.9972 89.3271 13.7386 90.3328 13.7386C91.0998 13.7386 91.7305 13.8693 92.2248 14.1307C92.7192 14.3864 93.1112 14.696 93.401 15.0597C93.6907 15.4176 93.9152 15.7557 94.0743 16.0739H94.2021V9.54545H97.2959V27H94.2618V24.9375H94.0743C93.9152 25.2557 93.6851 25.5937 93.3839 25.9517C93.0828 26.304 92.6851 26.6051 92.1907 26.8551C91.6964 27.1051 91.0743 27.2301 90.3243 27.2301ZM91.1851 24.6989C91.8385 24.6989 92.3953 24.5227 92.8555 24.1705C93.3157 23.8125 93.6652 23.3153 93.9038 22.679C94.1425 22.0426 94.2618 21.3011 94.2618 20.4545C94.2618 19.608 94.1425 18.8722 93.9038 18.2472C93.6709 17.6222 93.3243 17.1364 92.864 16.7898C92.4095 16.4432 91.8498 16.2699 91.1851 16.2699C90.4976 16.2699 89.9237 16.4489 89.4635 16.8068C89.0032 17.1648 88.6567 17.6591 88.4237 18.2898C88.1907 18.9205 88.0743 19.642 88.0743 20.4545C88.0743 21.2727 88.1907 22.0028 88.4237 22.6449C88.6623 23.2812 89.0118 23.7841 89.472 24.1534C89.9379 24.517 90.5089 24.6989 91.1851 24.6989ZM103.285 27L99.5863 13.9091H102.731L105.032 23.1136H105.152L107.504 13.9091H110.615L112.967 23.0625H113.095L115.362 13.9091H118.515L114.808 27H111.595L109.14 18.1534H108.961L106.507 27H103.285ZM120.669 27V13.9091H123.755V27H120.669ZM122.221 12.0511C121.732 12.0511 121.311 11.8892 120.959 11.5653C120.607 11.2358 120.431 10.8409 120.431 10.3807C120.431 9.91477 120.607 9.51989 120.959 9.19602C121.311 8.86648 121.732 8.7017 122.221 8.7017C122.715 8.7017 123.135 8.86648 123.482 9.19602C123.834 9.51989 124.01 9.91477 124.01 10.3807C124.01 10.8409 123.834 11.2358 123.482 11.5653C123.135 11.8892 122.715 12.0511 122.221 12.0511ZM130.012 19.3295V27H126.927V13.9091H129.876V16.1335H130.03C130.331 15.4006 130.811 14.8182 131.47 14.3864C132.135 13.9545 132.956 13.7386 133.933 13.7386C134.836 13.7386 135.623 13.9318 136.294 14.3182C136.97 14.7045 137.493 15.2642 137.862 15.9972C138.237 16.7301 138.422 17.6193 138.416 18.6648V27H135.331V19.142C135.331 18.267 135.103 17.5824 134.649 17.0881C134.2 16.5937 133.578 16.3466 132.782 16.3466C132.243 16.3466 131.762 16.4659 131.342 16.7045C130.927 16.9375 130.601 17.2756 130.362 17.7188C130.129 18.1619 130.012 18.6989 130.012 19.3295ZM146.41 27.2301C145.382 27.2301 144.461 26.9659 143.649 26.4375C142.836 25.9091 142.194 25.142 141.723 24.1364C141.251 23.1307 141.015 21.9091 141.015 20.4716C141.015 19.017 141.254 17.7898 141.731 16.7898C142.214 15.7841 142.865 15.0256 143.683 14.5142C144.501 13.9972 145.413 13.7386 146.419 13.7386C147.186 13.7386 147.816 13.8693 148.311 14.1307C148.805 14.3864 149.197 14.696 149.487 15.0597C149.777 15.4176 150.001 15.7557 150.16 16.0739H150.288V9.54545H153.382V27H150.348V24.9375H150.16C150.001 25.2557 149.771 25.5937 149.47 25.9517C149.169 26.304 148.771 26.6051 148.277 26.8551C147.782 27.1051 147.16 27.2301 146.41 27.2301ZM147.271 24.6989C147.924 24.6989 148.481 24.5227 148.941 24.1705C149.402 23.8125 149.751 23.3153 149.99 22.679C150.228 22.0426 150.348 21.3011 150.348 20.4545C150.348 19.608 150.228 18.8722 149.99 18.2472C149.757 17.6222 149.41 17.1364 148.95 16.7898C148.495 16.4432 147.936 16.2699 147.271 16.2699C146.584 16.2699 146.01 16.4489 145.549 16.8068C145.089 17.1648 144.743 17.6591 144.51 18.2898C144.277 18.9205 144.16 19.642 144.16 20.4545C144.16 21.2727 144.277 22.0028 144.51 22.6449C144.748 23.2812 145.098 23.7841 145.558 24.1534C146.024 24.517 146.595 24.6989 147.271 24.6989Z" fill="#111928"/>
<defs>
<linearGradient id="paint0_linear_0_2935" x1="14.6834" y1="1.9992" x2="14.4008" y2="13.3215" gradientUnits="userSpaceOnUse">
<stop stop-color="#4E00D3"/>
<stop offset="1" stop-color="#7A36F0"/>
</linearGradient>
<linearGradient id="paint1_linear_0_2935" x1="14.9976" y1="24.9346" x2="6.02198" y2="14.173" gradientUnits="userSpaceOnUse">
<stop stop-color="#5508D8"/>
<stop offset="1" stop-color="#7935EF"/>
</linearGradient>
<linearGradient id="paint2_linear_0_2935" x1="14.9933" y1="26.1741" x2="23.5663" y2="14.715" gradientUnits="userSpaceOnUse">
<stop stop-color="#5205D6"/>
<stop offset="1" stop-color="#7A35F0"/>
</linearGradient>
<linearGradient id="paint3_linear_0_2935" x1="14.9951" y1="7.58264" x2="14.9951" y2="27.4212" gradientUnits="userSpaceOnUse">
<stop stop-color="#7935EF"/>
<stop offset="1" stop-color="#6117E0"/>
</linearGradient>
</defs>
</svg>
